<?xml version="1.0" encoding="UTF-8"?>
<svg version="1.1" xmlns="http://www.w3.org/2000/svg" width="1387" height="612">
<path d="M0 0 C1.58801994 -0.01268686 3.17600754 -0.03016564 4.76392806 -0.05199969 C9.11284807 -0.09781746 13.4591049 -0.07527909 17.80803299 -0.04115129 C22.50360678 -0.01622782 27.1987275 -0.0546957 31.89421082 -0.08493042 C41.08722454 -0.13382007 50.27924988 -0.12328958 59.47230218 -0.09139137 C66.94537887 -0.06653622 74.41817878 -0.0631854 81.89128494 -0.07515335 C83.48746302 -0.0776817 83.48746302 -0.0776817 85.11588711 -0.08026112 C87.27773534 -0.08377816 89.43958349 -0.0873445 91.60143156 -0.09095962 C111.86949281 -0.12232047 132.13700665 -0.08627319 152.40497811 -0.02715559 C169.78707488 0.02197559 187.16836342 0.01346498 204.55044556 -0.03726196 C224.7434366 -0.09616466 244.93594774 -0.11928438 265.1290127 -0.08552706 C267.28346348 -0.0820231 269.43791434 -0.07856502 271.59236526 -0.07515335 C272.652345 -0.07345632 273.71232473 -0.07175929 274.80442505 -0.07001083 C282.26548987 -0.06052272 289.72624972 -0.07652373 297.1872673 -0.10242844 C306.28460382 -0.13332048 315.38089675 -0.12484971 324.47811411 -0.06634025 C329.11798379 -0.03747974 333.75611551 -0.02601807 338.3959713 -0.06248093 C342.64843934 -0.09539323 346.89756838 -0.07704972 351.14973553 -0.01872785 C352.68326607 -0.00649409 354.21708191 -0.01257422 355.75042729 -0.03936152 C362.93867671 -0.15525376 368.76149093 0.13528552 374.1767476 5.25535168 C376.35054329 7.54553892 378.35334303 9.97303059 380.37564087 12.39682007 C381.7418978 13.61823276 383.13359851 14.81262237 384.56314087 15.95932007 C385.49126587 16.76369507 386.41939087 17.56807007 387.37564087 18.39682007 C387.37564087 19.05682007 387.37564087 19.71682007 387.37564087 20.39682007 C388.03564087 20.39682007 388.69564087 20.39682007 389.37564087 20.39682007 C389.37564087 21.05682007 389.37564087 21.71682007 389.37564087 22.39682007 C390.01501587 22.66494507 390.65439087 22.93307007 391.31314087 23.20932007 C393.37564087 24.39682007 393.37564087 24.39682007 394.37564087 27.39682007 C394.92993774 27.67396851 395.48423462 27.95111694 396.05532837 28.23666382 C399.37538175 29.89669051 401.83425531 32.42592941 404.50064087 34.95932007 C408.13967494 38.58315914 408.13967494 38.58315914 412.37564087 41.39682007 C412.37564087 42.05682007 412.37564087 42.71682007 412.37564087 43.39682007 C413.03564087 43.39682007 413.69564087 43.39682007 414.37564087 43.39682007 C414.37564087 44.05682007 414.37564087 44.71682007 414.37564087 45.39682007 C415.03564087 45.39682007 415.69564087 45.39682007 416.37564087 45.39682007 C416.37564087 46.05682007 416.37564087 46.71682007 416.37564087 47.39682007 C417.36564087 47.72682007 418.35564087 48.05682007 419.37564087 48.39682007 C419.37564087 49.05682007 419.37564087 49.71682007 419.37564087 50.39682007 C420.03564087 50.39682007 420.69564087 50.39682007 421.37564087 50.39682007 C421.37564087 51.05682007 421.37564087 51.71682007 421.37564087 52.39682007 C421.9640979 52.66381714 422.55255493 52.93081421 423.15884399 53.2059021 C425.41451355 54.41770343 426.98850874 55.69739625 428.84439087 57.45150757 C429.49262817 58.061073 430.14086548 58.67063843 430.80874634 59.29867554 C431.49082153 59.94981323 432.17289673 60.60095093 432.87564087 61.27182007 C433.93162476 62.26979614 433.93162476 62.26979614 435.00894165 63.28793335 C440.01127329 68.03646605 444.9270484 72.866767 449.74478149 77.80258179 C452.30103337 80.43861992 452.30103337 80.43861992 455.37564087 82.39682007 C455.37564087 83.05682007 455.37564087 83.71682007 455.37564087 84.39682007 C456.03564087 84.39682007 456.69564087 84.39682007 457.37564087 84.39682007 C457.37564087 85.05682007 457.37564087 85.71682007 457.37564087 86.39682007 C458.03564087 86.39682007 458.69564087 86.39682007 459.37564087 86.39682007 C459.37564087 87.05682007 459.37564087 87.71682007 459.37564087 88.39682007 C459.95442993 88.64689819 460.53321899 88.89697632 461.12954712 89.15463257 C463.67434706 90.56201758 465.31012918 92.16964938 467.31314087 94.27182007 C469.60552628 96.63704763 471.78463158 98.72060438 474.37564087 100.77182007 C475.03564087 101.30807007 475.69564087 101.84432007 476.37564087 102.39682007 C476.37564087 103.05682007 476.37564087 103.71682007 476.37564087 104.39682007 C477.03564087 104.39682007 477.69564087 104.39682007 478.37564087 104.39682007 C478.37564087 105.05682007 478.37564087 105.71682007 478.37564087 106.39682007 C478.96860962 106.66107788 479.56157837 106.92533569 480.17251587 107.19760132 C482.45593141 108.44052432 483.8499081 109.70083653 485.62564087 111.58432007 C488.09584496 114.13352856 490.6171861 116.525015 493.31314087 118.83432007 C496.8577447 121.88623765 500.13726967 125.13268904 503.41079712 128.47103882 C505.32556901 130.34774368 507.31027734 132.06384339 509.37564087 133.77182007 C510.86064087 135.07119507 510.86064087 135.07119507 512.37564087 136.39682007 C512.37564087 137.05682007 512.37564087 137.71682007 512.37564087 138.39682007 C513.33470337 138.79900757 513.33470337 138.79900757 514.31314087 139.20932007 C516.37564087 140.39682007 516.37564087 140.39682007 517.37564087 143.39682007 C518.03564087 143.39682007 518.69564087 143.39682007 519.37564087 143.39682007 C519.37564087 144.05682007 519.37564087 144.71682007 519.37564087 145.39682007 C522.59080224 144.81922798 524.18446904 143.94677668 526.43423462 141.59603882 C526.98530884 141.03078491 527.53638306 140.46553101 528.10415649 139.88314819 C528.66812134 139.28953491 529.23208618 138.69592163 529.81314087 138.08432007 C533.50773712 134.24517115 537.14514013 130.66013826 541.37564087 127.39682007 C543.68732981 125.14596504 545.94157676 122.84877403 548.17642212 120.52182007 C548.79903931 119.88244507 549.42165649 119.24307007 550.06314087 118.58432007 C550.64450806 117.97974976 551.22587524 117.37517944 551.82485962 116.75228882 C553.37564087 115.39682007 553.37564087 115.39682007 555.37564087 115.39682007 C555.37564087 114.73682007 555.37564087 114.07682007 555.37564087 113.39682007 C556.03564087 113.39682007 556.69564087 113.39682007 557.37564087 113.39682007 C557.37564087 112.73682007 557.37564087 112.07682007 557.37564087 111.39682007 C559.05532837 109.67025757 559.05532837 109.67025757 561.25064087 107.77182007 C561.96993774 107.14017944 562.68923462 106.50853882 563.43032837 105.85775757 C565.37564087 104.39682007 565.37564087 104.39682007 567.37564087 104.39682007 C567.37564087 103.73682007 567.37564087 103.07682007 567.37564087 102.39682007 C568.03564087 102.39682007 568.69564087 102.39682007 569.37564087 102.39682007 C569.37564087 101.73682007 569.37564087 101.07682007 569.37564087 100.39682007 C570.03564087 100.39682007 570.69564087 100.39682007 571.37564087 100.39682007 C571.37564087 99.73682007 571.37564087 99.07682007 571.37564087 98.39682007 C572.84439087 96.95150757 572.84439087 96.95150757 574.87564087 95.27182007 C577.84241448 92.75424105 580.65138336 90.17513031 583.37564087 87.39682007 C586.65294964 84.06790014 590.07154688 80.97846531 593.61782837 77.93978882 C595.05526801 76.67803624 596.41586584 75.32922076 597.75064087 73.95932007 C599.37564087 72.39682007 599.37564087 72.39682007 601.37564087 72.39682007 C601.63683716 71.80659058 601.89803345 71.21636108 602.16714478 70.60824585 C603.44700684 68.26622756 604.76648934 66.82896554 606.71157837 65.01400757 C607.36384399 64.40428101 608.01610962 63.79455444 608.68814087 63.16635132 C609.36876587 62.54115601 610.04939087 61.91596069 610.75064087 61.27182007 C611.42353149 60.63889038 612.09642212 60.00596069 612.78970337 59.35385132 C615.86654587 56.50110955 618.52531415 54.14350198 622.37564087 52.39682007 C622.37564087 51.73682007 622.37564087 51.07682007 622.37564087 50.39682007 C623.03564087 50.39682007 623.69564087 50.39682007 624.37564087 50.39682007 C624.37564087 49.73682007 624.37564087 49.07682007 624.37564087 48.39682007 C626.02017212 46.77572632 626.02017212 46.77572632 628.18814087 44.95932007 C631.20027352 42.42342675 631.20027352 42.42342675 634.01235962 39.67416382 C635.37564087 38.39682007 635.37564087 38.39682007 637.37564087 38.39682007 C637.37564087 37.73682007 637.37564087 37.07682007 637.37564087 36.39682007 C638.03564087 36.39682007 638.69564087 36.39682007 639.37564087 36.39682007 C639.6444104 35.79901733 639.91317993 35.2012146 640.19009399 34.58529663 C641.38104635 32.38684174 642.51950827 31.0673505 644.34439087 29.38119507 C645.2009729 28.58842163 645.2009729 28.58842163 646.07485962 27.77963257 C646.66911743 27.24080444 647.26337524 26.70197632 647.87564087 26.14682007 C648.46989868 25.59252319 649.06415649 25.03822632 649.67642212 24.46713257 C654.11767443 20.39682007 654.11767443 20.39682007 656.37564087 20.39682007 C656.37564087 19.73682007 656.37564087 19.07682007 656.37564087 18.39682007 C657.03564087 18.39682007 657.69564087 18.39682007 658.37564087 18.39682007 C658.37564087 17.73682007 658.37564087 17.07682007 658.37564087 16.39682007 C659.03564087 16.39682007 659.69564087 16.39682007 660.37564087 16.39682007 C660.37564087 15.73682007 660.37564087 15.07682007 660.37564087 14.39682007 C661.87954712 12.88119507 661.87954712 12.88119507 663.93814087 11.14682007 C664.59942993 10.58478882 665.26071899 10.02275757 665.94204712 9.44369507 C666.74513306 8.76822632 667.54821899 8.09275757 668.37564087 7.39682007 C668.85361461 6.90600197 669.33158834 6.41518387 669.82404613 5.90949249 C673.75275091 2.07184375 676.50947103 0.70724627 681.99934387 0.62808228 C682.82195206 0.64651184 683.64456024 0.66494141 684.49209595 0.68392944 C685.37748047 0.6798407 686.26286499 0.67575195 687.17507935 0.67153931 C690.08263535 0.66555399 692.98788841 0.70236623 695.89517212 0.74057007 C697.92061298 0.74668912 699.94606228 0.75043842 701.97151184 0.75192261 C706.20575416 0.76110825 710.43923133 0.78988704 714.67324829 0.83432007 C720.10870377 0.89106484 725.54355974 0.91276309 730.97928333 0.92168427 C735.15621464 0.92998144 739.33302413 0.9496039 743.50989342 0.97343445 C745.51502189 0.98484838 747.52016208 0.99436297 749.52530861 1.00196838 C752.31913676 1.01566473 755.11248328 1.04290952 757.90615845 1.07455444 C758.73888779 1.07679016 759.57161713 1.07902588 760.42958069 1.08132935 C766.14624286 1.16742205 766.14624286 1.16742205 768.37564087 3.39682007 C768.56934996 6.41789362 768.63595121 9.34702188 768.6161499 12.36901855 C768.61871318 13.78040739 768.61871318 13.78040739 768.62132823 15.22030914 C768.62463868 18.3926661 768.61359392 21.56481442 768.60269165 24.7371521 C768.60212787 27.00342809 768.60244344 29.26970445 768.60357666 31.53598022 C768.60415248 37.70511826 768.59236121 43.87417915 768.57842875 50.0432992 C768.56595943 56.48420481 768.56475389 62.92511202 768.56237793 69.36602783 C768.55686014 80.182134 768.54435225 90.99820841 768.52651978 101.81430054 C768.50816917 112.95622617 768.49400866 124.0981441 768.48550415 135.24008179 C768.48471598 136.26980709 768.48471598 136.26980709 768.48391189 137.32033493 C768.48130186 140.76413 768.47877443 144.20792512 768.47628808 147.65172029 C768.45554571 176.23343942 768.42016317 204.81512864 768.37564087 233.39682007 C769.74408378 233.39543738 769.74408378 233.39543738 771.140172 233.39402676 C793.70406079 233.37159948 816.26794757 233.35523227 838.83184528 233.3450079 C849.74512963 233.33992765 860.65840631 233.33302249 871.57168579 233.32138062 C919.08430762 233.2717019 966.57558222 233.38771229 1014.08119297 234.22831917 C1029.39179282 234.49353961 1044.70208593 234.58448089 1060.01480103 234.5821228 C1063.80645506 234.58201567 1067.59794383 234.59635005 1071.38955688 234.61289501 C1074.43690815 234.62400192 1077.48421626 234.62604343 1080.53158569 234.62551308 C1081.9347905 234.6266685 1083.33799737 234.63094688 1084.74118042 234.63884544 C1096.94629842 234.70193289 1107.75718517 234.56379855 1117.37564087 226.39682007 C1122.16755829 221.64005119 1124.66264847 217.43983292 1124.75064087 210.64682007 C1124.6015581 203.83042439 1123.22520329 199.4627267 1118.57485962 194.45932007 C1110.77341034 187.18806637 1102.989144 185.24044279 1092.46803284 185.26551819 C1091.67749577 185.26340247 1090.8869587 185.26128676 1090.07246596 185.25910693 C1087.42603307 185.25312052 1084.77964806 185.25410616 1082.13320923 185.25497437 C1080.23391133 185.25194169 1078.33461416 185.24841993 1076.43531799 185.2444458 C1072.34350949 185.23656021 1068.25170969 185.23141294 1064.15989494 185.22815514 C1057.67242156 185.22223112 1051.18500266 185.20567406 1044.69755554 185.18681335 C1042.47281936 185.18047567 1040.24808315 185.17415005 1038.0233469 185.16783619 C1036.90900591 185.16467038 1035.79466492 185.16150457 1034.64655602 185.15824282 C1019.54771594 185.11625991 1004.44890061 185.08324057 989.3500061 185.07089233 C979.1614429 185.06247437 968.97301421 185.0398416 958.7845183 185.00153667 C953.40156357 184.98189191 948.0188094 184.96933238 942.63581657 184.97437096 C937.55739649 184.9790661 932.47935452 184.96495046 927.40101051 184.93735886 C925.55336626 184.93052646 923.70568222 184.93023289 921.85803986 184.93755913 C892.88173631 185.04070273 867.48516657 177.14370124 844.37564087 159.39682007 C843.61380493 158.86572632 842.85196899 158.33463257 842.06704712 157.78744507 C841.50888306 157.32853882 840.95071899 156.86963257 840.37564087 156.39682007 C840.37564087 155.73682007 840.37564087 155.07682007 840.37564087 154.39682007 C839.71564087 154.39682007 839.05564087 154.39682007 838.37564087 154.39682007 C838.37564087 153.73682007 838.37564087 153.07682007 838.37564087 152.39682007 C837.80329712 152.16478882 837.23095337 151.93275757 836.64126587 151.69369507 C825.2986104 145.20100263 816.65690558 126.41729475 813.37564087 114.39682007 C808.07710046 92.6201602 811.0410415 70.64202525 822.37564087 51.39682007 C826.78844182 44.35947017 826.78844182 44.35947017 829.37564087 41.39682007 C830.03564087 41.39682007 830.69564087 41.39682007 831.37564087 41.39682007 C831.60251587 40.83994507 831.82939087 40.28307007 832.06314087 39.70932007 C833.75114123 36.73522419 835.84240604 34.67673142 838.37564087 32.39682007 C839.03564087 32.39682007 839.69564087 32.39682007 840.37564087 32.39682007 C840.70564087 31.40682007 841.03564087 30.41682007 841.37564087 29.39682007 C846.74706944 25.39682007 846.74706944 25.39682007 849.37564087 25.39682007 C849.37564087 24.73682007 849.37564087 24.07682007 849.37564087 23.39682007 C851.86597548 21.70205135 854.33691635 20.15526858 856.93814087 18.64682007 C857.70956421 18.19870972 858.48098755 17.75059937 859.27578735 17.28890991 C883.4837642 3.53308015 908.88389032 1.07771964 936.18179321 1.15390015 C938.43703771 1.15282506 940.69228193 1.15088302 942.94752502 1.14814758 C949.02299213 1.14333621 955.0983848 1.15090541 961.17384291 1.16110063 C967.54299799 1.16992977 973.91215108 1.16812283 980.28131104 1.16773987 C990.95827623 1.16867351 1001.63521013 1.17726724 1012.31216431 1.19100952 C1023.29621905 1.20513965 1034.2802488 1.21217814 1045.26431274 1.21151733 C1045.94300035 1.21147738 1046.62168795 1.21143742 1047.32094185 1.21139625 C1048.33723913 1.21133572 1048.33723913 1.21133572 1049.37406766 1.21127397 C1061.26912326 1.21061979 1073.16417014 1.21575735 1085.05922318 1.22406578 C1090.12060246 1.227601 1095.18197815 1.22942934 1100.24335861 1.22995949 C1106.1876471 1.23096064 1112.13190924 1.23703847 1118.07618904 1.24712563 C1120.26198859 1.25005612 1122.44779117 1.25127489 1124.63359261 1.25069809 C1127.60544755 1.25021042 1130.5772277 1.25583286 1133.54907227 1.2631073 C1134.42335983 1.2615587 1135.29764739 1.2600101 1136.19842851 1.25841457 C1142.1472801 1.28263969 1142.1472801 1.28263969 1144.37564087 2.39682007 C1142.70162109 6.35359408 1140.24414802 9.2414622 1137.37564087 12.39682007 C1136.71564087 12.39682007 1136.05564087 12.39682007 1135.37564087 12.39682007 C1135.37564087 13.05682007 1135.37564087 13.71682007 1135.37564087 14.39682007 C1134.71564087 14.39682007 1134.05564087 14.39682007 1133.37564087 14.39682007 C1133.16036743 14.93049194 1132.94509399 15.46416382 1132.72329712 16.01400757 C1130.87987243 19.27339615 1128.37550714 21.82493777 1125.81314087 24.52182007 C1122.1893018 28.16085414 1122.1893018 28.16085414 1119.37564087 32.39682007 C1118.71564087 32.39682007 1118.05564087 32.39682007 1117.37564087 32.39682007 C1117.10324585 32.99140015 1116.83085083 33.58598022 1116.55020142 34.19857788 C1115.40534598 36.34122563 1114.24919389 37.81688643 1112.58267212 39.56869507 C1112.03836548 40.14651733 1111.49405884 40.7243396 1110.93325806 41.31967163 C1110.35736938 41.92263062 1109.78148071 42.5255896 1109.18814087 43.14682007 C1108.00111391 44.406456 1106.81490842 45.66686657 1105.62954712 46.92807007 C1104.77900757 47.83105835 1104.77900757 47.83105835 1103.9112854 48.75228882 C1101.56621084 51.26364371 1099.31322622 53.84866822 1097.07095337 56.45150757 C1094.16811176 59.78241798 1091.17545874 63.03295169 1088.19595337 66.29525757 C1086.3388742 68.26405428 1086.3388742 68.26405428 1085.37564087 70.39682007 C1082.07032563 71.49859181 1079.62789279 71.52427293 1076.14634705 71.52812195 C1074.8411763 71.53213013 1073.53600555 71.53613831 1072.19128418 71.54026794 C1070.74142454 71.53979284 1069.29156492 71.53925672 1067.84170532 71.53866577 C1066.31731567 71.54169738 1064.79292692 71.54521884 1063.26853943 71.54919434 C1059.98316154 71.55708477 1056.69779451 71.56222885 1053.41240883 71.565485 C1048.21377365 71.57139616 1043.0152069 71.5879384 1037.81660461 71.60682678 C1036.03643135 71.61316431 1034.25625805 71.61948993 1032.47608471 71.62580395 C1031.13871543 71.63055266 1031.13871543 71.63055266 1029.77432859 71.63539732 C1017.67114866 71.67745916 1005.56800033 71.71043888 993.4647522 71.7227478 C985.30157647 71.73113501 977.13856992 71.75365132 968.97547883 71.79210347 C964.65703412 71.81184428 960.33884221 71.82427535 956.0203495 71.81926918 C951.95479045 71.81461375 947.88970998 71.82847657 943.82424736 71.85628128 C942.33600561 71.86317843 940.84771423 71.86333552 939.35947418 71.85608101 C930.1483534 71.81573249 923.79493423 72.21203755 916.35220337 77.95932007 C910.6701027 84.00271038 909.85315736 87.90898948 910.00064087 96.13119507 C910.64565858 101.7482243 912.95108597 105.10173169 916.98501587 108.92025757 C925.39833218 115.59688015 935.77667276 114.66998863 945.95767212 114.60800171 C947.53565372 114.60579755 949.1136368 114.60449439 950.69161987 114.60401917 C954.08113727 114.60109403 957.47055747 114.59187335 960.86004639 114.57771492 C966.24406799 114.55531118 971.62805425 114.54733393 977.01211548 114.54121399 C985.55394911 114.529841 994.09572993 114.50913671 1002.63753414 114.48431629 C1017.86549339 114.44010837 1033.09346823 114.40655497 1048.32147503 114.38407224 C1053.64783211 114.37577801 1058.9741333 114.36171267 1064.30046421 114.34323633 C1116.08651421 114.17284748 1116.08651421 114.17284748 1131.43814087 117.58432007 C1132.47631958 117.80571655 1133.51449829 118.02711304 1134.58413696 118.25521851 C1151.8580968 122.11781922 1167.76593952 130.00911077 1181.37564087 141.39682007 C1181.37564087 142.05682007 1181.37564087 142.71682007 1181.37564087 143.39682007 C1181.90673462 143.60307007 1182.43782837 143.80932007 1182.98501587 144.02182007 C1186.38337523 145.97643199 1188.88620015 148.61805723 1191.62564087 151.39682007 C1192.17993774 151.94338257 1192.73423462 152.48994507 1193.30532837 153.05307007 C1197.37564087 157.14343337 1197.37564087 157.14343337 1197.37564087 159.39682007 C1198.03564087 159.39682007 1198.69564087 159.39682007 1199.37564087 159.39682007 C1200.03564087 161.37682007 1200.69564087 163.35682007 1201.37564087 165.39682007 C1202.03564087 165.39682007 1202.69564087 165.39682007 1203.37564087 165.39682007 C1214.92116181 186.78442444 1217.61552155 210.88492536 1211.59829712 234.43978882 C1207.95678341 246.52086219 1201.13619284 257.3329496 1192.37564087 266.39682007 C1191.71564087 266.39682007 1191.05564087 266.39682007 1190.37564087 266.39682007 C1190.13845337 266.96787476 1189.90126587 267.53892944 1189.65689087 268.12728882 C1185.40018982 275.66735988 1175.80075854 282.15973457 1168.37564087 286.39682007 C1167.38564087 286.39682007 1166.39564087 286.39682007 1165.37564087 286.39682007 C1165.37564087 287.05682007 1165.37564087 287.71682007 1165.37564087 288.39682007 C1141.66786104 300.21664708 1118.8984857 303.56511527 1092.53219604 303.51707458 C1090.73992547 303.51751128 1088.94765495 303.518388 1087.15538478 303.51966375 C1082.25700885 303.52188937 1077.35865497 303.517914 1072.46028185 303.51288569 C1067.16800979 303.50855351 1061.87573891 303.51002958 1056.58346558 303.51078796 C1047.42305458 303.51131145 1038.26265072 303.50818299 1029.10224152 303.50255013 C1015.85794626 303.49441133 1002.61365445 303.49181746 989.36935696 303.49056213 C967.87958766 303.48837536 946.38982217 303.48172541 924.90005493 303.47225952 C904.02896137 303.46307573 883.15786885 303.45599963 862.28677368 303.45175171 C860.35592957 303.45135762 860.35592957 303.45135762 858.38607851 303.45095558 C851.92820734 303.44965051 845.47033617 303.44838681 839.012465 303.44714367 C785.46685358 303.43678271 731.92124919 303.41835067 678.37564087 303.39682007 C678.04564087 241.35682007 677.71564087 179.31682007 677.37564087 115.39682007 C666.30420144 124.86257506 666.30420144 124.86257506 655.46157837 134.55697632 C649.97436698 139.39682007 649.97436698 139.39682007 647.37564087 139.39682007 C647.37564087 140.05682007 647.37564087 140.71682007 647.37564087 141.39682007 C645.69595337 143.12338257 645.69595337 143.12338257 643.50064087 145.02182007 C642.78134399 145.65346069 642.06204712 146.28510132 641.32095337 146.93588257 C639.37564087 148.39682007 639.37564087 148.39682007 637.37564087 148.39682007 C637.37564087 149.05682007 637.37564087 149.71682007 637.37564087 150.39682007 C635.68289803 151.96114794 633.91994235 153.45010579 632.12564087 154.89682007 C631.15110962 155.69088257 630.17657837 156.48494507 629.17251587 157.30307007 C626.92669325 158.98430041 624.92906057 160.27817906 622.37564087 161.39682007 C622.37564087 162.05682007 622.37564087 162.71682007 622.37564087 163.39682007 C617.90505263 167.39682007 617.90505263 167.39682007 615.37564087 167.39682007 C615.37564087 168.05682007 615.37564087 168.71682007 615.37564087 169.39682007 C610.90505263 173.39682007 610.90505263 173.39682007 608.37564087 173.39682007 C608.37564087 174.05682007 608.37564087 174.71682007 608.37564087 175.39682007 C606.91470337 176.90463257 606.91470337 176.90463257 605.00064087 178.52182007 C604.06091431 179.33006226 604.06091431 179.33006226 603.10220337 180.15463257 C601.37564087 181.39682007 601.37564087 181.39682007 599.37564087 181.39682007 C599.37564087 182.05682007 599.37564087 182.71682007 599.37564087 183.39682007 C597.66231333 184.98215709 595.8787504 186.49223221 594.06314087 187.95932007 C593.07700806 188.76498413 592.09087524 189.57064819 591.07485962 190.40072632 C588.37564087 192.39682007 588.37564087 192.39682007 585.37564087 193.39682007 C585.37564087 194.05682007 585.37564087 194.71682007 585.37564087 195.39682007 C583.86776926 196.77173306 582.29024326 198.07046469 580.68814087 199.33432007 C577.36996796 201.98111169 574.07441352 204.63318017 570.85610962 207.40072632 C570.27627319 207.89902954 569.69643677 208.39733276 569.09902954 208.91073608 C567.96501096 209.88860421 566.83358342 210.86948656 565.70498657 211.85360718 C563.2596667 213.95267369 561.46701827 215.36636094 558.37564087 216.39682007 C558.37564087 217.05682007 558.37564087 217.71682007 558.37564087 218.39682007 C557.71564087 218.39682007 557.05564087 218.39682007 556.37564087 218.39682007 C556.37564087 219.05682007 556.37564087 219.71682007 556.37564087 220.39682007 C554.73506227 221.58704376 553.09008824 222.77362037 551.39517212 223.88510132 C548.79850579 225.82883414 546.64836287 228.08351375 544.37564087 230.39682007 C540.434867 234.13104303 536.43401465 237.79089091 532.37564087 241.39682007 C531.58931274 242.09549194 530.80298462 242.79416382 529.99282837 243.51400757 C529.31478149 244.07346069 528.63673462 244.63291382 527.93814087 245.20932007 C527.36192993 245.69014038 526.78571899 246.17096069 526.19204712 246.66635132 C524.37564087 247.39682007 524.37564087 247.39682007 521.97329712 246.81869507 C518.94007044 245.15840257 516.75326892 243.22115488 514.25064087 240.83432007 C507.91794488 234.92663724 501.29550622 229.44969107 494.46157837 224.12728882 C493.54634399 223.41185913 492.63110962 222.69642944 491.68814087 221.95932007 C490.85927368 221.32123413 490.03040649 220.68314819 489.17642212 220.02572632 C488.58216431 219.48818726 487.98790649 218.95064819 487.37564087 218.39682007 C487.37564087 217.73682007 487.37564087 217.07682007 487.37564087 216.39682007 C486.82392212 216.14932007 486.27220337 215.90182007 485.70376587 215.64682007 C482.92427379 214.15447533 480.59417017 212.36009484 478.12564087 210.39682007 C477.23360962 209.69557007 476.34157837 208.99432007 475.42251587 208.27182007 C474.74704712 207.65307007 474.07157837 207.03432007 473.37564087 206.39682007 C473.37564087 205.73682007 473.37564087 205.07682007 473.37564087 204.39682007 C472.49706421 203.99475342 472.49706421 203.99475342 471.60073853 203.58456421 C469.35156363 202.38396778 467.67695254 201.08157932 465.77407837 199.39291382 C465.11923462 198.81734741 464.46439087 198.24178101 463.78970337 197.64877319 C463.11681274 197.05000366 462.44392212 196.45123413 461.75064087 195.83432007 C460.40591453 194.64367696 459.05963265 193.45478769 457.71157837 192.26791382 C457.11909302 191.74125122 456.52660767 191.21458862 455.91616821 190.67196655 C454.3866661 189.30824419 454.3866661 189.30824419 452.37564087 188.39682007 C452.37564087 187.73682007 452.37564087 187.07682007 452.37564087 186.39682007 C451.54419556 186.02750366 451.54419556 186.02750366 450.69595337 185.65072632 C442.94477273 181.46195698 436.39410478 174.55228487 429.91079712 168.65463257 C423.21180013 162.68849965 416.16356278 157.14514051 408.95767212 151.80697632 C408.43560181 151.34162476 407.91353149 150.87627319 407.37564087 150.39682007 C407.37564087 149.73682007 407.37564087 149.07682007 407.37564087 148.39682007 C406.82392212 148.14932007 406.27220337 147.90182007 405.70376587 147.64682007 C402.92427379 146.15447533 400.59417017 144.36009484 398.12564087 142.39682007 C397.23360962 141.69557007 396.34157837 140.99432007 395.42251587 140.27182007 C394.40931274 139.34369507 394.40931274 139.34369507 393.37564087 138.39682007 C393.37564087 137.73682007 393.37564087 137.07682007 393.37564087 136.39682007 C392.81360962 136.13900757 392.25157837 135.88119507 391.67251587 135.61557007 C389.10859508 134.2551223 386.92337721 132.66893045 384.62564087 130.89682007 C383.82642212 130.28838257 383.02720337 129.67994507 382.20376587 129.05307007 C381.60048462 128.50650757 380.99720337 127.95994507 380.37564087 127.39682007 C380.37564087 126.73682007 380.37564087 126.07682007 380.37564087 125.39682007 C379.81360962 125.15189819 379.25157837 124.90697632 378.67251587 124.65463257 C374.36979826 122.29838245 370.98260954 118.6855268 367.37564087 115.39682007 C366.39522356 125.55486681 366.24409407 135.63801842 366.27798462 145.82943726 C366.27990804 147.54399573 366.28136983 149.25855478 366.28240967 150.97311401 C366.28554818 154.63703225 366.29178168 158.3009269 366.30047607 161.96483612 C366.31407849 167.75460123 366.31990834 173.54435873 366.32461548 179.33413696 C366.33567054 191.60504175 366.35524958 203.87592779 366.37564087 216.14682007 C366.39767316 229.43778151 366.4182112 242.72873573 366.42905903 256.01971173 C366.43405112 261.78065216 366.44392297 267.5415577 366.45748901 273.30248404 C366.46491721 276.87088048 366.46825766 280.43927204 366.47045517 284.00767517 C366.47233586 285.66820311 366.47595382 287.32873007 366.48138809 288.98925018 C366.48854382 291.24563348 366.48964458 293.50193869 366.48916626 295.7583313 C366.49138687 297.0236607 366.49360748 298.2889901 366.49589539 299.59266281 C366.37564087 302.39682007 366.37564087 302.39682007 365.37564087 303.39682007 C362.61162679 303.49732221 359.87256861 303.53298082 357.10806274 303.5262146 C356.24145523 303.52796692 355.37484772 303.52971924 354.48197937 303.53152466 C351.60276314 303.53594432 348.72360778 303.53300479 345.84439087 303.52963257 C343.8528136 303.53030557 341.86123641 303.53127557 339.86965942 303.53253174 C335.68984192 303.53400887 331.51004574 303.53185368 327.33023071 303.52719116 C321.95961561 303.52149387 316.58905047 303.52477279 311.21843719 303.53076363 C307.10421367 303.53436884 302.99000208 303.53323084 298.8757782 303.53063583 C296.89493301 303.52996645 294.91408675 303.53079537 292.9332428 303.53311539 C290.16987211 303.53564126 287.40658353 303.53180225 284.64321899 303.5262146 C283.81616959 303.52823883 282.98912018 303.53026306 282.13700867 303.53234863 C276.48990331 303.51108251 276.48990331 303.51108251 275.37564087 302.39682007 C275.27652789 301.03532073 275.24764746 299.66865976 275.24624634 298.30355835 C275.24158607 296.94826775 275.24158607 296.94826775 275.23683167 295.56559753 C275.23881058 294.5431041 275.24078949 293.52061066 275.24282837 292.46713257 C275.24078148 290.8061982 275.24078148 290.8061982 275.23869324 289.11170959 C275.23696505 285.93180356 275.24047067 282.7519547 275.24686813 279.57205582 C275.25064747 277.51823106 275.25271699 275.46441101 275.2543335 273.4105835 C275.28423857 240.56799439 275.53095774 207.72557513 275.76591563 174.88392234 C275.80282017 169.71141171 275.83792835 164.53889084 275.87240601 159.36636353 C275.91540697 152.937548 275.96189914 146.50876696 276.01231879 140.08000523 C276.03843142 136.74627784 276.06293935 133.412562 276.08474922 130.07880211 C276.1092963 126.38113622 276.13921477 122.68354724 276.1703186 118.9859314 C276.17607344 117.9472397 276.18182827 116.90854801 276.18775749 115.83838081 C276.29309833 104.66488963 276.88922004 93.58449903 277.37564087 82.39682007 C230.84564087 82.39682007 184.31564087 82.39682007 136.37564087 82.39682007 C136.37564087 155.32682007 136.37564087 228.25682007 136.37564087 303.39682007 C105.02564087 303.39682007 73.67564087 303.39682007 41.37564087 303.39682007 C39.53393392 301.55511312 40.25291078 298.96056628 40.24655956 296.50965351 C40.2494724 295.65655773 40.25238524 294.80346194 40.25538635 293.92451477 C40.25453193 293.02527883 40.2536775 292.12604288 40.25279719 291.19955736 C40.25113962 288.16234587 40.25666825 285.12518865 40.26211548 282.08798218 C40.26239732 279.92037457 40.26223968 277.75276686 40.26167297 275.5851593 C40.26138487 269.68043986 40.2672837 263.77574054 40.27424693 257.8710258 C40.28047831 251.70771431 40.2810841 245.54440241 40.28227234 239.38108826 C40.2853863 227.70093107 40.29360055 216.02078319 40.30362183 204.34063011 C40.31478097 191.04702781 40.32029291 177.75342575 40.32531726 164.45981967 C40.33578311 137.1054813 40.35338379 109.75115121 40.37564087 82.39682007 C39.26684067 82.39904068 38.15804047 82.40126129 37.01564026 82.40354919 C26.41495862 82.42408137 15.81428117 82.43893383 5.21358395 82.44863224 C-0.23248708 82.45378632 -5.67854169 82.46074258 -11.12460327 82.47225952 C-35.64492188 82.52279087 -60.12364742 82.47206092 -84.62435913 81.39682007 C-82.99595615 77.99462097 -81.14150529 75.2286095 -78.62435913 72.39682007 C-77.96435913 72.39682007 -77.30435913 72.39682007 -76.62435913 72.39682007 C-76.31498413 71.77807007 -76.00560913 71.15932007 -75.68685913 70.52182007 C-74.99935913 69.14682007 -74.31185913 67.77182007 -73.62435913 66.39682007 C-72.96435913 66.39682007 -72.30435913 66.39682007 -71.62435913 66.39682007 C-71.62435913 65.73682007 -71.62435913 65.07682007 -71.62435913 64.39682007 C-70.96435913 64.39682007 -70.30435913 64.39682007 -69.62435913 64.39682007 C-69.39748413 63.86057007 -69.17060913 63.32432007 -68.93685913 62.77182007 C-67.16865824 59.57221845 -65.0876571 57.10644784 -62.62435913 54.39682007 C-61.96435913 54.39682007 -61.30435913 54.39682007 -60.62435913 54.39682007 C-60.62435913 53.73682007 -60.62435913 53.07682007 -60.62435913 52.39682007 C-59.96435913 52.39682007 -59.30435913 52.39682007 -58.62435913 52.39682007 C-58.40908569 51.86314819 -58.19381226 51.32947632 -57.97201538 50.77963257 C-56.12859069 47.52024399 -53.6242254 44.96870237 -51.06185913 42.27182007 C-47.43802006 38.632786 -47.43802006 38.632786 -44.62435913 34.39682007 C-43.96435913 34.39682007 -43.30435913 34.39682007 -42.62435913 34.39682007 C-42.38846069 33.84252319 -42.15256226 33.28822632 -41.90951538 32.71713257 C-40.31171363 29.83234765 -38.30584904 27.68509974 -36.06185913 25.27182007 C-32.98716727 22.08174497 -32.98716727 22.08174497 -30.62435913 18.39682007 C-29.96435913 18.39682007 -29.30435913 18.39682007 -28.62435913 18.39682007 C-28.62435913 17.73682007 -28.62435913 17.07682007 -28.62435913 16.39682007 C-27.96435913 16.39682007 -27.30435913 16.39682007 -26.62435913 16.39682007 C-26.36960898 15.85361323 -26.11485883 15.31040639 -25.85238898 14.75073874 C-19.49826539 2.57099393 -13.16090709 -0.22919096 0 0 Z " fill="#CFA965" transform="translate(128.62435913085938,42.603179931640625)"/>
<path d="M0 0 C2.2552445 -0.00107509 4.51048872 -0.00301713 6.76573181 -0.00575256 C12.84119891 -0.01056394 18.91659159 -0.00299474 24.99204969 0.00720048 C31.36120478 0.01602963 37.73035787 0.01422268 44.09951782 0.01383972 C54.77648302 0.01477336 65.45341692 0.0233671 76.13037109 0.03710938 C87.11442583 0.0512395 98.09845558 0.058278 109.08251953 0.05761719 C109.76120714 0.05757723 110.43989474 0.05753728 111.13914864 0.05749611 C112.15544592 0.05743558 112.15544592 0.05743558 113.19227445 0.05737382 C125.08733005 0.05671964 136.98237692 0.0618572 148.87742996 0.07016563 C153.93880925 0.07370086 159.00018494 0.0755292 164.0615654 0.07605934 C170.00585389 0.0770605 175.95011603 0.08313833 181.89439583 0.09322548 C184.08019538 0.09615598 186.26599796 0.09737474 188.45179939 0.09679794 C191.42365434 0.09631027 194.39543449 0.10193271 197.36727905 0.10920715 C198.24156661 0.10765855 199.11585418 0.10610995 200.0166353 0.10451442 C205.96548689 0.12873954 205.96548689 0.12873954 208.19384766 1.24291992 C206.51982788 5.19969394 204.06235481 8.08756205 201.19384766 11.24291992 C200.53384766 11.24291992 199.87384766 11.24291992 199.19384766 11.24291992 C199.19384766 11.90291992 199.19384766 12.56291992 199.19384766 13.24291992 C198.53384766 13.24291992 197.87384766 13.24291992 197.19384766 13.24291992 C196.8709375 14.04342773 196.8709375 14.04342773 196.54150391 14.86010742 C194.69807922 18.119496 192.19371393 20.67103763 189.63134766 23.36791992 C186.00750859 27.00695399 186.00750859 27.00695399 183.19384766 31.24291992 C182.53384766 31.24291992 181.87384766 31.24291992 181.19384766 31.24291992 C180.92145264 31.8375 180.64905762 32.43208008 180.3684082 33.04467773 C179.22355277 35.18732548 178.06740068 36.66298629 176.40087891 38.41479492 C175.85657227 38.99261719 175.31226563 39.57043945 174.75146484 40.16577148 C174.17557617 40.76873047 173.5996875 41.37168945 173.00634766 41.99291992 C171.8193207 43.25255585 170.6331152 44.51296642 169.44775391 45.77416992 C168.59721436 46.6771582 168.59721436 46.6771582 167.72949219 47.59838867 C165.38441763 50.10974356 163.13143301 52.69476808 160.88916016 55.29760742 C157.98631855 58.62851784 154.99366553 61.87905154 152.01416016 65.14135742 C150.15708099 67.11015413 150.15708099 67.11015413 149.19384766 69.24291992 C145.88853242 70.34469167 143.44609958 70.37037278 139.96455383 70.3742218 C138.65938309 70.37822998 137.35421234 70.38223816 136.00949097 70.3863678 C134.55963133 70.38589269 133.10977171 70.38535658 131.65991211 70.38476562 C130.13552245 70.38779723 128.6111337 70.39131869 127.08674622 70.39529419 C123.80136832 70.40318462 120.5160013 70.4083287 117.23061562 70.41158485 C112.03198044 70.41749601 106.83341369 70.43403825 101.6348114 70.45292664 C99.85463814 70.45926416 98.07446484 70.46558978 96.2942915 70.4719038 C94.95692222 70.47665252 94.95692222 70.47665252 93.59253538 70.48149717 C81.48935545 70.52355901 69.38620712 70.55653874 57.28295898 70.56884766 C49.11978326 70.57723486 40.95677671 70.59975117 32.79368562 70.63820332 C28.47524091 70.65794413 24.157049 70.67037521 19.83855629 70.66536903 C15.77299724 70.66071361 11.70791677 70.67457643 7.64245415 70.70238113 C6.1542124 70.70927829 4.66592102 70.70943537 3.17768097 70.70218086 C-6.03343981 70.66183234 -12.38685898 71.0581374 -19.82958984 76.80541992 C-25.51169052 82.84881023 -26.32863585 86.75508933 -26.18115234 94.97729492 C-25.53613463 100.59432416 -23.23070724 103.94783155 -19.19677734 107.76635742 C-10.78346103 114.44298 -0.40512046 113.51608848 9.77587891 113.45410156 C11.35386051 113.4518974 12.93184359 113.45059425 14.50982666 113.45011902 C17.89934405 113.44719388 21.28876426 113.4379732 24.67825317 113.42381477 C30.06227478 113.40141103 35.44626104 113.39343378 40.83032227 113.38731384 C49.37215589 113.37594085 57.91393671 113.35523657 66.45574093 113.33041614 C81.68370017 113.28620822 96.91167502 113.25265482 112.13968182 113.2301721 C117.4660389 113.22187786 122.79234009 113.20781252 128.118671 113.18933618 C179.904721 113.01894733 179.904721 113.01894733 195.25634766 116.43041992 C196.29452637 116.65181641 197.33270508 116.87321289 198.40234375 117.10131836 C215.67630359 120.96391908 231.5841463 128.85521063 245.19384766 140.24291992 C245.19384766 140.90291992 245.19384766 141.56291992 245.19384766 142.24291992 C245.72494141 142.44916992 246.25603516 142.65541992 246.80322266 142.86791992 C250.20158202 144.82253184 252.70440694 147.46415709 255.44384766 150.24291992 C255.99814453 150.78948242 256.55244141 151.33604492 257.12353516 151.89916992 C261.19384766 155.98953322 261.19384766 155.98953322 261.19384766 158.24291992 C261.85384766 158.24291992 262.51384766 158.24291992 263.19384766 158.24291992 C263.85384766 160.22291992 264.51384766 162.20291992 265.19384766 164.24291992 C265.85384766 164.24291992 266.51384766 164.24291992 267.19384766 164.24291992 C278.7393686 185.63052429 281.43372833 209.73102521 275.41650391 233.28588867 C271.7749902 245.36696204 264.95439963 256.17904945 256.19384766 265.24291992 C255.53384766 265.24291992 254.87384766 265.24291992 254.19384766 265.24291992 C253.83806641 266.09950195 253.83806641 266.09950195 253.47509766 266.97338867 C249.21839661 274.51345973 239.61896533 281.00583442 232.19384766 285.24291992 C231.20384766 285.24291992 230.21384766 285.24291992 229.19384766 285.24291992 C229.19384766 285.90291992 229.19384766 286.56291992 229.19384766 287.24291992 C206.90964968 298.35300138 185.40786057 302.45352724 160.50776672 302.32521057 C159.04634443 302.32150931 157.58492094 302.31826194 156.12349671 302.31542534 C152.13497164 302.30638633 148.14649358 302.29096336 144.15799344 302.27444255 C139.84663707 302.25772223 135.53526517 302.24700112 131.22389221 302.23553467 C123.76319873 302.21487907 116.30252528 302.19046079 108.84185219 302.16345406 C98.05510015 302.12441281 87.26833634 302.0910972 76.48156121 302.05915879 C58.978823 302.00718061 41.47610284 301.95060088 23.97338867 301.89111328 C6.97567445 301.83335194 -10.0220446 301.77776652 -27.01977539 301.72509766 C-28.06830788 301.72184794 -29.11684036 301.71859822 -30.19714656 301.71525002 C-35.45756255 301.6989598 -40.71797868 301.68271224 -45.97839487 301.66648591 C-89.58766959 301.53191309 -133.19691767 301.38986646 -176.80615234 301.24291992 C-174.86028365 296.93192269 -171.82687098 294.28441336 -168.35693359 291.17260742 C-162.26114176 285.59628274 -156.35201211 279.86870274 -150.53662109 274.00073242 C-149.75521759 273.21365906 -148.97381409 272.42658569 -148.16873169 271.61566162 C-144.94623365 268.36618307 -141.72818236 265.11235745 -138.51391602 261.85473633 C-136.12992575 259.44078992 -133.73994621 257.03290671 -131.34912109 254.62573242 C-130.61904343 253.88219513 -129.88896576 253.13865784 -129.13676453 252.37258911 C-128.46458389 251.69702972 -127.79240326 251.02147034 -127.09985352 250.32543945 C-126.51000168 249.72813019 -125.92014984 249.13082092 -125.31242371 248.51541138 C-123.80615234 247.24291992 -123.80615234 247.24291992 -121.80615234 247.24291992 C-121.80615234 246.58291992 -121.80615234 245.92291992 -121.80615234 245.24291992 C-120.26708984 243.72729492 -120.26708984 243.72729492 -118.18115234 241.99291992 C-115.56676869 239.80925848 -113.50169984 237.85644495 -111.37638855 235.15855408 C-107.77584242 231.57787035 -104.5412152 231.53317644 -99.61784363 231.4852829 C-98.53827896 231.50528603 -97.45871429 231.52528915 -96.34643555 231.54589844 C-95.19361084 231.54343864 -94.04078613 231.54097885 -92.85302734 231.53844452 C-89.0203411 231.53757924 -85.18936799 231.57956464 -81.35693359 231.62182617 C-78.65578127 231.63346526 -75.95463757 231.63617835 -73.25346375 231.63926697 C-66.7781064 231.65206705 -60.30335223 231.69660458 -53.82823676 231.75225967 C-46.36535076 231.81503132 -38.9024464 231.84359624 -31.43936181 231.87113595 C0.92797535 231.99417765 33.29521898 232.2825744 65.6574707 232.87915039 C84.85081444 233.23035231 104.04046177 233.38618519 123.23681641 233.42016602 C126.49726564 233.42595517 129.75764527 233.4362595 133.01806641 233.45092773 C136.80775728 233.46753905 140.59732873 233.47382349 144.38705444 233.47211647 C145.77445078 233.47294932 147.16184994 233.47705281 148.54922485 233.48480797 C160.75763169 233.54797057 171.5725307 233.41232788 181.19384766 225.24291992 C185.98576507 220.48615104 188.48085526 216.28593278 188.56884766 209.49291992 C188.41976488 202.67652424 187.04341007 198.30882656 182.39306641 193.30541992 C174.59161713 186.03416623 166.80735078 184.08654264 156.28623962 184.11161804 C155.10043402 184.10844447 155.10043402 184.10844447 153.89067274 184.10520679 C151.24423986 184.09922037 148.59785485 184.10020601 145.95141602 184.10107422 C144.05211812 184.09804154 142.15282094 184.09451978 140.25352478 184.09054565 C136.16171628 184.08266006 132.06991648 184.0775128 127.97810173 184.07425499 C121.49062835 184.06833098 115.00320945 184.05177391 108.51576233 184.03291321 C106.29102615 184.02657552 104.06628994 184.0202499 101.84155369 184.01393604 C100.7272127 184.01077023 99.61287171 184.00760442 98.46476281 184.00434268 C83.36592273 183.96235976 68.2671074 183.92934042 53.16821289 183.91699219 C42.97964968 183.90857422 32.791221 183.88594146 22.60272509 183.84763652 C17.21977036 183.82799176 11.83701618 183.81543223 6.45402336 183.82047081 C1.37560327 183.82516595 -3.7024387 183.81105032 -8.7807827 183.78345871 C-10.62842695 183.77662632 -12.47611099 183.77633274 -14.32375336 183.78365898 C-43.3000569 183.88680258 -68.69662665 175.98980109 -91.80615234 158.24291992 C-92.94890625 157.4462793 -92.94890625 157.4462793 -94.11474609 156.63354492 C-94.67291016 156.17463867 -95.23107422 155.71573242 -95.80615234 155.24291992 C-95.80615234 154.58291992 -95.80615234 153.92291992 -95.80615234 153.24291992 C-96.46615234 153.24291992 -97.12615234 153.24291992 -97.80615234 153.24291992 C-97.80615234 152.58291992 -97.80615234 151.92291992 -97.80615234 151.24291992 C-98.66466797 150.89487305 -98.66466797 150.89487305 -99.54052734 150.53979492 C-110.88318281 144.04710248 -119.52488763 125.26339461 -122.80615234 113.24291992 C-128.10469275 91.46626005 -125.14075171 69.4881251 -113.80615234 50.24291992 C-109.3933514 43.20557003 -109.3933514 43.20557003 -106.80615234 40.24291992 C-106.14615234 40.24291992 -105.48615234 40.24291992 -104.80615234 40.24291992 C-104.57927734 39.68604492 -104.35240234 39.12916992 -104.11865234 38.55541992 C-102.43065198 35.58132405 -100.33938718 33.52283127 -97.80615234 31.24291992 C-97.14615234 31.24291992 -96.48615234 31.24291992 -95.80615234 31.24291992 C-95.31115234 29.75791992 -95.31115234 29.75791992 -94.80615234 28.24291992 C-89.43472377 24.24291992 -89.43472377 24.24291992 -86.80615234 24.24291992 C-86.80615234 23.58291992 -86.80615234 22.92291992 -86.80615234 22.24291992 C-84.31581773 20.5481512 -81.84487687 19.00136844 -79.24365234 17.49291992 C-78.472229 17.04480957 -77.70080566 16.59669922 -76.90600586 16.13500977 C-52.69802901 2.37918 -27.29790289 -0.07618051 0 0 Z " fill="#FCFCFC" transform="translate(1064.80615234375,43.757080078125)"/>
<path d="M0 0 C1.28907084 -0.00854425 2.57814168 -0.0170885 3.90627527 -0.02589166 C7.46943157 -0.04817519 11.02956247 -0.0083765 14.59233332 0.04188895 C18.43953197 0.08518115 22.28656785 0.07045251 26.13394165 0.06286621 C32.79459385 0.05762921 39.45426451 0.08893217 46.1146698 0.1452446 C55.74425166 0.22660773 65.37336018 0.25256815 75.00324851 0.26512451 C90.62780077 0.28699662 106.25183018 0.35350661 121.87609863 0.44815063 C137.05120228 0.53997811 152.22616377 0.61074382 167.40148926 0.65322876 C168.33730408 0.65585599 169.2731189 0.65848323 170.23729175 0.66119008 C174.93212416 0.6742407 179.62695757 0.68687772 184.32179165 0.69930911 C223.253997 0.80293206 262.18561874 0.97902422 301.11730957 1.20254517 C300.18473943 2.30134361 299.25058474 3.39879732 298.31579208 4.4957056 C297.53574456 5.41264496 297.53574456 5.41264496 296.7399385 6.34810835 C294.11821327 9.34437183 291.31642559 12.15088096 288.50109863 14.96401978 C287.86945297 15.59902405 287.23780731 16.23402832 286.58702087 16.88827515 C284.5216065 18.96310438 282.45252133 21.03422207 280.38293457 23.10488892 C278.93891204 24.55212733 277.4949638 25.99943989 276.05108643 27.44682312 C273.03701027 30.46686438 270.02089729 33.48485453 267.00354004 36.50161743 C263.12900894 40.3760463 259.26143743 44.25734438 255.39554214 48.14038754 C252.42221802 51.12479296 249.44439789 54.1046801 246.46526337 57.08328438 C245.03624783 58.51348302 243.60886056 59.94531045 242.1831131 61.37876701 C240.19874124 63.37287352 238.20821036 65.36061904 236.21594238 67.34683228 C235.6247612 67.94363297 235.03358002 68.54043365 234.42448425 69.15531921 C230.34563401 73.20254517 230.34563401 73.20254517 228.11730957 73.20254517 C228.11730957 73.86254517 228.11730957 74.52254517 228.11730957 75.20254517 C226.46728129 76.55641452 224.79987087 77.88932659 223.11730957 79.20254517 C222.78730957 79.86254517 222.45730957 80.52254517 222.11730957 81.20254517 C195.05730957 81.20254517 167.99730957 81.20254517 140.11730957 81.20254517 C140.11730957 154.13254517 140.11730957 227.06254517 140.11730957 302.20254517 C108.76730957 302.20254517 77.41730957 302.20254517 45.11730957 302.20254517 C43.27560262 300.36083822 43.99457948 297.76629137 43.98822826 295.31537861 C43.9911411 294.46228282 43.99405394 293.60918704 43.99705505 292.73023987 C43.99620063 291.83100392 43.9953462 290.93176798 43.99446589 290.00528246 C43.99280832 286.96807097 43.99833695 283.93091375 44.00378418 280.89370728 C44.00406602 278.72609966 44.00390838 276.55849196 44.00334167 274.3908844 C44.00305357 268.48616496 44.0089524 262.58146564 44.01591563 256.6767509 C44.02214701 250.51343941 44.0227528 244.35012751 44.02394104 238.18681335 C44.027055 226.50665617 44.03526925 214.82650829 44.04529053 203.14635521 C44.05644968 189.85275291 44.06196161 176.55915085 44.06698596 163.26554477 C44.07745181 135.9112064 44.09505249 108.5568763 44.11730957 81.20254517 C43.00850937 81.20476578 41.89970917 81.20698639 40.75730896 81.20927429 C30.15662732 81.22980646 19.55594987 81.24465893 8.95525265 81.25435734 C3.50918162 81.25951142 -1.93687299 81.26646768 -7.38293457 81.27798462 C-31.90325317 81.32851597 -56.38197872 81.27778602 -80.88269043 80.20254517 C-79.25428744 76.80034607 -77.39983659 74.03433459 -74.88269043 71.20254517 C-74.22269043 71.20254517 -73.56269043 71.20254517 -72.88269043 71.20254517 C-72.57331543 70.58379517 -72.26394043 69.96504517 -71.94519043 69.32754517 C-71.25769043 67.95254517 -70.57019043 66.57754517 -69.88269043 65.20254517 C-69.22269043 65.20254517 -68.56269043 65.20254517 -67.88269043 65.20254517 C-67.88269043 64.54254517 -67.88269043 63.88254517 -67.88269043 63.20254517 C-67.22269043 63.20254517 -66.56269043 63.20254517 -65.88269043 63.20254517 C-65.65581543 62.66629517 -65.42894043 62.13004517 -65.19519043 61.57754517 C-63.42698954 58.37794355 -61.3459884 55.91217294 -58.88269043 53.20254517 C-58.22269043 53.20254517 -57.56269043 53.20254517 -56.88269043 53.20254517 C-56.88269043 52.54254517 -56.88269043 51.88254517 -56.88269043 51.20254517 C-56.22269043 51.20254517 -55.56269043 51.20254517 -54.88269043 51.20254517 C-54.66741699 50.66887329 -54.45214355 50.13520142 -54.23034668 49.58535767 C-52.38692199 46.32596909 -49.8825567 43.77442746 -47.32019043 41.07754517 C-43.69635136 37.4385111 -43.69635136 37.4385111 -40.88269043 33.20254517 C-40.22269043 33.20254517 -39.56269043 33.20254517 -38.88269043 33.20254517 C-38.64679199 32.64824829 -38.41089355 32.09395142 -38.16784668 31.52285767 C-36.57004493 28.63807275 -34.56418034 26.49082484 -32.32019043 24.07754517 C-29.24549856 20.88747007 -29.24549856 20.88747007 -26.88269043 17.20254517 C-26.22269043 17.20254517 -25.56269043 17.20254517 -24.88269043 17.20254517 C-24.88269043 16.54254517 -24.88269043 15.88254517 -24.88269043 15.20254517 C-24.22269043 15.20254517 -23.56269043 15.20254517 -22.88269043 15.20254517 C-22.49039773 14.37264181 -22.49039773 14.37264181 -22.09017992 13.52597272 C-16.59514297 2.95253057 -11.8816986 -0.28878434 0 0 Z " fill="#FEFEFE" transform="translate(124.8826904296875,43.797454833984375)"/>
<path d="M0 0 C1.37140137 0.01244751 1.37140137 0.01244751 2.77050781 0.02514648 C14.51232084 0.31651433 24.18354263 3.03682957 32.6875 11.4375 C37.80365084 16.85190179 42.6875 24.75730277 42.6875 32.4375 C36.7475 32.4375 30.8075 32.4375 24.6875 32.4375 C23.3675 29.7975 22.0475 27.1575 20.6875 24.4375 C14.26123232 18.01123232 9.05762164 16.26349783 0.1875 16.0625 C-8.14581291 16.24330166 -13.04906936 17.72672501 -19.3125 23.4375 C-21.1713388 27.1551776 -20.7419926 31.37975644 -20.3125 35.4375 C-17.93575251 40.40706293 -14.0823763 41.5459383 -9.21923828 43.43847656 C-4.21961823 45.15680726 0.90527433 46.24000304 6.0625 47.375 C33.20802938 53.68229701 33.20802938 53.68229701 41.09375 65.5546875 C42.94379206 69.05655284 44.30089704 72.47481966 44.6875 76.4375 C44.75066406 77.07042969 44.81382813 77.70335937 44.87890625 78.35546875 C45.33521832 86.67212413 42.78840155 94.30552928 37.5 100.75 C28.25565716 110.36884713 17.10441459 114.32339366 3.92773438 114.78100586 C-8.43062706 114.96501193 -20.8633009 112.85341618 -30.421875 104.37109375 C-38.26770952 96.34694481 -43.3125 87.9649715 -43.3125 76.4375 C-37.3725 76.4375 -31.4325 76.4375 -25.3125 76.4375 C-24.735 78.149375 -24.1575 79.86125 -23.5625 81.625 C-20.75429197 89.21396356 -17.64998471 92.56333449 -10.62890625 96.421875 C-2.80533084 99.85211043 6.64125417 99.41613024 14.625 96.8125 C19.51596372 94.79400704 22.03244656 93.03959263 24.6875 88.4375 C26.08886731 84.08261805 25.87946018 81.07736728 24.5625 76.6875 C20.45150622 69.56177744 14.18340122 67.82582363 6.6875 65.4375 C2.89797315 64.51616926 -0.91925208 63.7900164 -4.75 63.0625 C-13.41095066 61.29459031 -20.8242448 59.3035613 -28.3125 54.4375 C-28.92867187 54.04949219 -29.54484375 53.66148437 -30.1796875 53.26171875 C-35.13388546 49.67547097 -38.46321549 43.82929661 -39.93359375 37.95703125 C-41.20850895 29.47950236 -40.7239272 22.19427877 -35.6484375 15.1171875 C-26.47506398 4.04335412 -14.12903561 -0.16682666 0 0 Z " fill="#FFFFFF" transform="translate(1220.3125,453.5625)"/>
<path d="M0 0 C0.8664917 -0.01015137 1.7329834 -0.02030273 2.62573242 -0.03076172 C13.83595266 0.12025349 24.62303097 3.67075465 32.61328125 11.76953125 C37.95283796 18.12428705 41.5469126 23.92539264 41.3125 32.4375 C29.36857389 33.63455273 29.36857389 33.63455273 24.3125 32.4375 C21.77837551 30.09222708 20.79063319 28.06948142 19.42578125 24.921875 C17.44231619 20.49561614 13.87662896 19.04675703 9.5546875 17.36328125 C1.25182045 14.99246259 -8.03397208 15.40200346 -15.6875 19.4375 C-18.6230932 21.56112061 -20.30346565 23.04790201 -21.28125 26.5859375 C-21.94495319 31.12627068 -21.90041664 34.3008929 -19.6875 38.4375 C-11.97465666 44.87013778 -0.71889592 46.28797563 8.79492188 48.25756836 C20.26027658 50.66498519 31.49381764 53.88293388 38.94921875 63.5625 C43.91725003 71.30636538 44.47083142 79.43963271 43.3125 88.4375 C40.341426 98.19490168 34.39016393 104.74210225 25.625 109.6875 C11.66697584 115.97538661 -4.13987293 116.39108283 -18.56640625 111.69140625 C-29.21414315 107.41365463 -37.02124222 99.79847255 -41.6875 89.3125 C-43.70411731 84.41689613 -43.6875 82.15491623 -43.6875 76.4375 C-38.0775 76.4375 -32.4675 76.4375 -26.6875 76.4375 C-25.965625 78.12875 -25.24375 79.82 -24.5 81.5625 C-21.17812595 88.7908237 -18.05532619 93.18513144 -10.75 96.67578125 C-2.47665008 99.7312798 7.22231518 99.51340012 15.40625 96.35546875 C19.7754198 94.2514628 22.46202568 91.89145552 24.3125 87.4375 C25.03428762 83.29416143 25.12967129 79.30943424 23.42578125 75.40625 C16.23260525 65.55613512 0.31371363 64.07378637 -10.75317383 61.66772461 C-21.5833494 59.24446546 -30.46810796 55.38826421 -37.30078125 46.2890625 C-41.55636686 39.07254831 -41.67347369 31.61742987 -40.6875 23.4375 C-39.10443136 17.91360091 -36.01919444 14.17850884 -31.6875 10.4375 C-31.14609375 9.94378906 -30.6046875 9.45007813 -30.046875 8.94140625 C-21.18505783 1.4758838 -11.1933719 0.09279275 0 0 Z " fill="#FFFFFF" transform="translate(383.6875,453.5625)"/>
<path d="M0 0 C25.41 0 50.82 0 77 0 C77 4.95 77 9.9 77 15 C57.53 15 38.06 15 18 15 C18 25.23 18 35.46 18 46 C36.48 46 54.96 46 74 46 C74 50.62 74 55.24 74 60 C73 61 73 61 70.79173279 61.12025452 C69.81688431 61.11803391 68.84203583 61.11581329 67.83764648 61.11352539 C66.73658066 61.11344986 65.63551483 61.11337433 64.50108337 61.11329651 C63.3031868 61.10813522 62.10529022 61.10297394 60.87109375 61.09765625 C59.65172623 61.0962413 58.4323587 61.09482635 57.17604065 61.09336853 C53.2631693 61.08774967 49.35035419 61.07519396 45.4375 61.0625 C42.79231853 61.05748743 40.14713617 61.0529241 37.50195312 61.04882812 C31.00126274 61.03862296 24.50069467 61.01905121 18 61 C18 71.89 18 82.78 18 94 C37.47 94 56.94 94 77 94 C77 99.28 77 104.56 77 110 C51.59 110 26.18 110 0 110 C0 73.7 0 37.4 0 0 Z " fill="#FFFFFF" transform="translate(175,456)"/>
<path d="M0 0 C25.08 0 50.16 0 76 0 C76 4.95 76 9.9 76 15 C56.86 15 37.72 15 18 15 C18 25.23 18 35.46 18 46 C36.15 46 54.3 46 73 46 C73 50.95 73 55.9 73 61 C54.85 61 36.7 61 18 61 C18 71.89 18 82.78 18 94 C37.14 94 56.28 94 76 94 C76 99.28 76 104.56 76 110 C50.92 110 25.84 110 0 110 C0 73.7 0 37.4 0 0 Z " fill="#FFFFFF" transform="translate(1013,456)"/>
<path d="M0 0 C6.93 0 13.86 0 21 0 C30.50879136 25.11561197 39.98450298 50.24360742 49.42358398 75.38549805 C50.51855451 78.30195229 51.61430008 81.21811353 52.71069336 84.1340332 C54.01417744 87.60090545 55.31603805 91.06838294 56.61663628 94.53633881 C57.10152026 95.82846705 57.58696406 97.12038536 58.0729847 98.41208649 C58.73906747 100.18267907 59.40292295 101.95410908 60.06665039 103.72558594 C60.44173233 104.72458923 60.81681427 105.72359253 61.20326233 106.75286865 C62 109 62 109 62 110 C55.4 110 48.8 110 42 110 C40.66278583 106.3763884 39.33006834 102.75123363 38 99.125 C37.6184375 98.09246094 37.236875 97.05992187 36.84375 95.99609375 C36.4828125 95.00996094 36.121875 94.02382813 35.75 93.0078125 C35.24726562 91.64100342 35.24726562 91.64100342 34.734375 90.24658203 C34 88 34 88 34 86 C18.16 86 2.32 86 -14 86 C-14.66 88.97 -15.32 91.94 -16 95 C-16.80746646 97.51547185 -17.65856808 100.01756011 -18.5625 102.5 C-18.99691406 103.7065625 -19.43132813 104.913125 -19.87890625 106.15625 C-21 109 -21 109 -22 110 C-23.34267413 110.08631874 -24.68974322 110.10706473 -26.03515625 110.09765625 C-26.84404297 110.09443359 -27.65292969 110.09121094 -28.48632812 110.08789062 C-29.33646484 110.07951172 -30.18660156 110.07113281 -31.0625 110.0625 C-31.91650391 110.05798828 -32.77050781 110.05347656 -33.65039062 110.04882812 C-35.76695663 110.03700373 -37.88348685 110.01906769 -40 110 C-37.9861117 103.0080435 -35.69263354 96.1645831 -33.18359375 89.3359375 C-32.62990616 87.81919937 -32.62990616 87.81919937 -32.06503296 86.27182007 C-30.85902406 82.97171066 -29.64847792 79.67328894 -28.4375 76.375 C-27.59657061 74.07846066 -26.7556693 71.78191104 -25.91479492 69.48535156 C-17.40532094 46.27533297 -8.72108031 23.13118075 0 0 Z M9 22 C6.89751206 27.85224274 4.79799574 33.70553992 2.70117188 39.55981445 C1.98811191 41.54936176 1.2742546 43.53862349 0.55957031 45.52758789 C-0.4702217 48.39393793 -1.49709925 51.26131801 -2.5234375 54.12890625 C-2.84122162 55.01147598 -3.15900574 55.89404572 -3.48641968 56.80335999 C-3.7865799 57.64370285 -4.08674011 58.48404572 -4.39599609 59.34985352 C-4.65802826 60.08043472 -4.92006042 60.81101593 -5.19003296 61.56373596 C-6.22542675 64.67805114 -7.09838722 67.84435526 -8 71 C3.88 71 15.76 71 28 71 C26.0225641 64.40854701 23.98637563 57.94760052 21.64453125 51.4921875 C21.33803146 50.64069122 21.03153168 49.78919495 20.71574402 48.91189575 C19.75047818 46.23202776 18.78155992 43.55349805 17.8125 40.875 C17.15144905 39.04175451 16.49063964 37.2084219 15.83007812 35.375 C14.22283783 30.91565643 12.61232393 26.45750792 11 22 C10.34 22 9.68 22 9 22 Z " fill="#FFFFFF" transform="translate(705,456)"/>
<path d="M0 0 C29.37 0 58.74 0 89 0 C89 4.95 89 9.9 89 15 C77.45 15 65.9 15 54 15 C54 46.35 54 77.7 54 110 C48.06 110 42.12 110 36 110 C36 78.65 36 47.3 36 15 C24.12 15 12.24 15 0 15 C0 10.05 0 5.1 0 0 Z " fill="#FFFFFF" transform="translate(509,456)"/>
<path d="M0 0 C29.04 0 58.08 0 88 0 C88 4.95 88 9.9 88 15 C76.45 15 64.9 15 53 15 C53 46.35 53 77.7 53 110 C47.06 110 41.12 110 35 110 C35 78.65 35 47.3 35 15 C23.45 15 11.9 15 0 15 C0 10.05 0 5.1 0 0 Z " fill="#FFFFFF" transform="translate(834,456)"/>
</svg>
